<?xml version="1.0" encoding="UTF-8"?>
<svg xmlns="http://www.w3.org/2000/svg" xmlns:xlink="http://www.w3.org/1999/xlink" width="3200" height="2660.44" viewBox="0 0 3200 2660.44">
<path fill-rule="evenodd" fill="rgb(0%, 0%, 0%)" fill-opacity="1" d="M 530.800781 735.910156 C 1025.460938 460.621094 1650.578125 638.71875 1925.871094 1133.390625 C 2201.171875 1628.058594 2023.050781 2253.175781 1528.398438 2528.460938 C 1033.730469 2803.757812 408.609375 2625.667969 133.3125 2130.992188 C -141.984375 1636.320312 36.128906 1011.199219 530.800781 735.910156 Z M 655.5 959.980469 C 1026.5 753.511719 1495.339844 887.078125 1701.808594 1258.089844 C 1908.28125 1629.089844 1774.699219 2097.929688 1403.699219 2304.398438 C 1032.679688 2510.875 563.863281 2377.289062 357.390625 2006.289062 C 150.921875 1635.28125 284.484375 1166.460938 655.5 959.980469 "/>
<path fill-rule="evenodd" fill="rgb(0%, 0%, 0%)" fill-opacity="1" d="M 1673.96875 715.769531 C 2168.628906 440.480469 2793.75 618.578125 3069.050781 1113.25 C 3344.339844 1607.921875 3166.230469 2233.035156 2671.570312 2508.320312 C 2176.898438 2783.617188 1551.78125 2605.527344 1276.488281 2110.855469 C 1001.191406 1616.179688 1179.300781 991.058594 1673.96875 715.769531 Z M 1798.671875 939.839844 C 2169.671875 733.371094 2638.511719 866.949219 2844.980469 1237.949219 C 3051.449219 1608.949219 2917.871094 2077.789062 2546.871094 2284.257812 C 2175.859375 2490.738281 1707.039062 2357.148438 1500.570312 1986.148438 C 1294.089844 1615.148438 1427.660156 1146.320312 1798.671875 939.839844 "/>
<path fill-rule="evenodd" fill="rgb(0%, 0%, 0%)" fill-opacity="1" d="M 2412.21875 866.140625 L 2239.359375 185.890625 L 2916 377.460938 L 2412.21875 866.140625 "/>
<path fill-rule="evenodd" fill="rgb(0%, 0%, 0%)" fill-opacity="1" d="M 2473.308594 0.359375 L 2567.53125 255.640625 L 2242.460938 163.640625 L 2472.058594 0.0117188 L 2473.308594 0.359375 "/>
<path fill-rule="evenodd" fill="rgb(0%, 0%, 0%)" fill-opacity="1" d="M 2809.601562 95.539062 L 2811.460938 96.070312 L 2921.238281 355.75 L 2595.070312 263.441406 L 2809.601562 95.539062 "/>
<path fill-rule="evenodd" fill="rgb(0%, 0%, 0%)" fill-opacity="1" d="M 2584.308594 248.878906 L 2494.820312 6.449219 L 2788.058594 89.449219 L 2584.308594 248.878906 "/>
<path fill-rule="evenodd" fill="rgb(0%, 0%, 0%)" fill-opacity="1" d="M 2136.28125 445.558594 L 2840.710938 657.050781 L 2578.058594 892.339844 L 2225.859375 786.589844 L 2136.28125 445.558594 "/>
    <style>
        path { fill: #000; }
        @media (prefers-color-scheme: dark) {
            path { fill: #FFF; }
        }
    </style>
</svg>
